<svg width="25" height="33" viewBox="0 0 25 33" fill="none" xmlns="http://www.w3.org/2000/svg">
<path d="M12.5 0C6.73056 0 0 3.26954 0 11.5957C0 17.2438 9.61667 29.7305 12.5 33C15.0639 29.7305 25 17.5408 25 11.5957C25 3.26954 18.2694 0 12.5 0Z" fill="#23910E"/>
<path d="M20 11.5078V8.40685C20 8.16647 19.8498 7.89754 19.5493 7.60006C19.2488 7.30258 18.9168 7.05769 18.5532 6.86538C18.1896 6.67308 17.9026 6.57692 17.6923 6.57692C17.6923 6.43269 17.6322 6.30048 17.512 6.18029C17.3918 6.0601 17.2596 6 17.1154 6H7.88462C7.74038 6 7.60817 6.0601 7.48798 6.18029C7.36779 6.30048 7.30769 6.43269 7.30769 6.57692C7.09736 6.57692 6.8104 6.67308 6.44681 6.86538C6.08323 7.05769 5.7512 7.30258 5.45072 7.60006C5.15024 7.89754 5 8.16647 5 8.40685V11.4447C5 11.6791 5.10367 11.8954 5.311 12.0937C5.51833 12.2921 5.79928 12.4183 6.15385 12.4724V17.5385C5.9976 17.5385 5.86238 17.5956 5.7482 17.7097C5.63401 17.8239 5.57692 17.9591 5.57692 18.1154C5.57692 18.2716 5.63401 18.4068 5.7482 18.521C5.86238 18.6352 5.9976 18.6923 6.15385 18.6923H18.8462C19.0024 18.6923 19.1376 18.6352 19.2518 18.521C19.366 18.4068 19.4231 18.2716 19.4231 18.1154C19.4231 17.9591 19.366 17.8239 19.2518 17.7097C19.1376 17.5956 19.0024 17.5385 18.8462 17.5385V12.4994C19.2067 12.4393 19.4892 12.3176 19.6935 12.1343C19.8978 11.951 20 11.7422 20 11.5078ZM13.0769 13.5V17.5385H7.30769V12.4724C7.78245 12.3281 8.07091 12.2109 8.17308 12.1208C8.51562 12.4213 8.99639 12.5715 9.61538 12.5715C10.2344 12.5715 10.7151 12.4213 11.0577 12.1208C11.4002 12.4213 11.881 12.5715 12.5 12.5715C13.119 12.5715 13.5998 12.4213 13.9423 12.1208C14.2849 12.4213 14.7656 12.5715 15.3846 12.5715C16.0036 12.5715 16.4844 12.4213 16.8269 12.1208C16.9291 12.2109 17.2175 12.3281 17.6923 12.4724V17.5385H16.5385V13.5H13.0769ZM13.6538 14.0769H15.9615V17.5385H13.6538V14.0769ZM8.46154 11.5258L8.45252 8.1274C8.45252 7.77885 8.55318 7.53245 8.75451 7.38822C8.95583 7.24399 9.23978 7.16587 9.60637 7.15385H10.7692C10.7692 7.47837 10.7722 8.14994 10.7782 9.16857C10.7843 10.1872 10.7843 10.973 10.7782 11.5258C10.5559 11.8263 10.1683 11.9766 9.61538 11.9766C9.07452 11.9766 8.6899 11.8263 8.46154 11.5258ZM14.2218 11.5258V7.15385H15.3756C15.5198 7.15986 15.613 7.16436 15.655 7.16737C15.6971 7.17037 15.7752 7.17939 15.8894 7.19441C16.0036 7.20943 16.0787 7.22746 16.1148 7.2485C16.1508 7.26953 16.2049 7.30409 16.277 7.35216C16.3492 7.40024 16.3972 7.45733 16.4213 7.52344C16.4453 7.58954 16.4694 7.67368 16.4934 7.77584C16.5174 7.878 16.5294 7.99519 16.5294 8.1274L16.5385 11.5258C16.5024 11.6881 16.3777 11.8113 16.1644 11.8954C15.951 11.9796 15.6911 12.0216 15.3846 12.0216C15.0781 12.0216 14.8167 11.9796 14.6004 11.8954C14.384 11.8113 14.2578 11.6881 14.2218 11.5258ZM8.46154 13.5V16.3846H11.9231V13.5H8.46154ZM9.03846 14.0769H11.3462V15.8077H9.03846V14.0769Z" fill="white"/>
</svg>
